<?xml version="1.0" encoding="UTF-8" standalone="no"?>
<!-- Created with Inkscape (http://www.inkscape.org/) -->

<svg
   xmlns:dc="http://purl.org/dc/elements/1.1/"
   xmlns:cc="http://creativecommons.org/ns#"
   xmlns:rdf="http://www.w3.org/1999/02/22-rdf-syntax-ns#"
   xmlns:svg="http://www.w3.org/2000/svg"
   xmlns="http://www.w3.org/2000/svg"
   xmlns:sodipodi="http://sodipodi.sourceforge.net/DTD/sodipodi-0.dtd"
   xmlns:inkscape="http://www.inkscape.org/namespaces/inkscape"
   width="210mm"
   height="297mm"
   viewBox="0 0 210 297"
   version="1.1"
   id="svg8"
   inkscape:version="0.92.3 (2405546, 2018-03-11)"
   sodipodi:docname="top_p_or_k_sampling.svg">
  <sodipodi:namedview
     id="base"
     pagecolor="#ffffff"
     bordercolor="#666666"
     borderopacity="1.0"
     inkscape:pageopacity="0.0"
     inkscape:pageshadow="2"
     inkscape:zoom="0.83972969"
     inkscape:cx="-985.54318"
     inkscape:cy="373.37001"
     inkscape:document-units="mm"
     inkscape:current-layer="layer1"
     showgrid="false"
     inkscape:window-width="1853"
     inkscape:window-height="1025"
     inkscape:window-x="67"
     inkscape:window-y="27"
     inkscape:window-maximized="1"
     inkscape:snap-global="false" />
  <defs
     id="defs2">
    <marker
       inkscape:stockid="Arrow2Lend"
       orient="auto"
       refY="0.0"
       refX="0.0"
       id="Arrow2Lend"
       style="overflow:visible;"
       inkscape:isstock="true">
      <path
         id="path962"
         style="fill-rule:evenodd;stroke-width:0.625;stroke-linejoin:round;stroke:#000000;stroke-opacity:1;fill:#000000;fill-opacity:1"
         d="M 8.7185878,4.0337352 L -2.2072895,0.016013256 L 8.7185884,-4.0017078 C 6.9730900,-1.6296469 6.9831476,1.6157441 8.7185878,4.0337352 z "
         transform="scale(1.1) rotate(180) translate(1,0)" />
    </marker>
    <marker
       inkscape:stockid="DotM"
       orient="auto"
       refY="0.0"
       refX="0.0"
       id="DotM"
       style="overflow:visible"
       inkscape:isstock="true">
      <path
         id="path1070"
         d="M -2.5,-1.0 C -2.5,1.7600000 -4.7400000,4.0 -7.5,4.0 C -10.260000,4.0 -12.5,1.7600000 -12.5,-1.0 C -12.5,-3.7600000 -10.260000,-6.0 -7.5,-6.0 C -4.7400000,-6.0 -2.5,-3.7600000 -2.5,-1.0 z "
         style="fill-rule:evenodd;stroke:#1a1a1a;stroke-width:1pt;stroke-opacity:1;fill:#ff0000;fill-opacity:1"
         transform="scale(0.4) translate(7.4, 1)" />
    </marker>
    <marker
       inkscape:stockid="Arrow2Lend"
       orient="auto"
       refY="0"
       refX="0"
       id="Arrow2Lend-1"
       style="overflow:visible"
       inkscape:isstock="true">
      <path
         inkscape:connector-curvature="0"
         id="path962-2"
         style="fill:#000000;fill-opacity:1;fill-rule:evenodd;stroke:#000000;stroke-width:0.625;stroke-linejoin:round;stroke-opacity:1"
         d="M 8.7185878,4.0337352 -2.2072895,0.01601326 8.7185884,-4.0017078 c -1.7454984,2.3720609 -1.7354408,5.6174519 -6e-7,8.035443 z"
         transform="matrix(-1.1,0,0,-1.1,-1.1,0)" />
    </marker>
    <marker
       inkscape:stockid="Arrow2Lend"
       orient="auto"
       refY="0"
       refX="0"
       id="Arrow2Lend-1-0"
       style="overflow:visible"
       inkscape:isstock="true">
      <path
         inkscape:connector-curvature="0"
         id="path962-2-9"
         style="fill:#000000;fill-opacity:1;fill-rule:evenodd;stroke:#000000;stroke-width:0.625;stroke-linejoin:round;stroke-opacity:1"
         d="M 8.7185878,4.0337352 -2.2072895,0.01601326 8.7185884,-4.0017078 c -1.7454984,2.3720609 -1.7354408,5.6174519 -6e-7,8.035443 z"
         transform="matrix(-1.1,0,0,-1.1,-1.1,0)" />
    </marker>
  </defs>
  <metadata
     id="metadata5">
    <rdf:RDF>
      <cc:Work
         rdf:about="">
        <dc:format>image/svg+xml</dc:format>
        <dc:type
           rdf:resource="http://purl.org/dc/dcmitype/StillImage" />
        <dc:title></dc:title>
      </cc:Work>
    </rdf:RDF>
  </metadata>
  <g
     inkscape:label="Layer 1"
     inkscape:groupmode="layer"
     id="layer1">
    <flowRoot
       xml:space="preserve"
       id="flowRoot1061"
       style="font-style:normal;font-weight:normal;font-size:18.66666603px;line-height:1.25;font-family:sans-serif;letter-spacing:0px;word-spacing:0px;fill:#000000;fill-opacity:1;stroke:none"
       transform="scale(0.26458333)"><flowRegion
         id="flowRegion1063"><rect
           id="rect1065"
           width="442.85715"
           height="134.28572"
           x="-1660"
           y="851.09113" /></flowRegion><flowPara
         id="flowPara1067"
         style="line-height:20">The</flowPara></flowRoot>    <flowRoot
       xml:space="preserve"
       id="flowRoot1069"
       style="font-style:normal;font-weight:normal;font-size:18.66666603px;line-height:1.25;font-family:sans-serif;letter-spacing:0px;word-spacing:0px;fill:#000000;fill-opacity:1;stroke:none"
       transform="scale(0.26458333)"><flowRegion
         id="flowRegion1071"><rect
           id="rect1073"
           width="465.71429"
           height="114.28571"
           x="-1537.1428"
           y="42.519684" /></flowRegion><flowPara
         id="flowPara1075"
         style="font-size:133.33332825px">eeeee</flowPara></flowRoot>    <flowRoot
       xml:space="preserve"
       id="flowRoot1077"
       style="fill:black;fill-opacity:1;stroke:none;font-family:sans-serif;font-style:normal;font-weight:normal;font-size:48px;line-height:1.25;letter-spacing:0px;word-spacing:0px;"><flowRegion
         id="flowRegion1079"
         style="font-size:48px;"><rect
           id="rect1081"
           width="280"
           height="108.57143"
           x="-1442.8572"
           y="-40.33746"
           style="font-size:48px;" /></flowRegion><flowPara
         id="flowPara1083" /></flowRoot>    <text
       xml:space="preserve"
       style="font-style:normal;font-weight:normal;font-size:4.93888855px;line-height:1.25;font-family:sans-serif;letter-spacing:0px;word-spacing:0px;fill:#000000;fill-opacity:1;stroke:none;stroke-width:0.26458332"
       x="-364.91263"
       y="-4.9198871"
       id="text1087"><tspan
         sodipodi:role="line"
         id="tspan1085"
         x="-364.91263"
         y="-0.55012822"
         style="stroke-width:0.26458332" /></text>
    <flowRoot
       xml:space="preserve"
       id="flowRoot1089"
       style="fill:black;fill-opacity:1;stroke:none;font-family:sans-serif;font-style:normal;font-weight:normal;font-size:42.66666667px;line-height:1.25;letter-spacing:0px;word-spacing:0px;"><flowRegion
         id="flowRegion1091"
         style="font-size:42.66666667px;"><rect
           id="rect1093"
           width="299.40729"
           height="108.21951"
           x="-1406.8535"
           y="76.397827"
           style="font-size:42.66666667px;" /></flowRegion><flowPara
         id="flowPara1095" /></flowRoot>    <text
       xml:space="preserve"
       style="font-style:normal;font-weight:normal;font-size:4.93888855px;line-height:1.25;font-family:sans-serif;letter-spacing:0px;word-spacing:0px;fill:#000000;fill-opacity:1;stroke:none;stroke-width:0.26458332"
       x="-78.272308"
       y="48.919312"
       id="text1099-97-2"><tspan
         sodipodi:role="line"
         id="tspan1097-3-9"
         x="-78.272308"
         y="53.28907"
         style="font-style:italic;font-variant:normal;font-weight:normal;font-stretch:normal;font-size:8.81944466px;line-height:6.17361069px;font-family:sans-serif;-inkscape-font-specification:'sans-serif Italic';stroke-width:0.26458332" /></text>
    <flowRoot
       xml:space="preserve"
       id="flowRoot1321"
       style="font-style:normal;font-weight:normal;font-size:33.33333206px;line-height:1.25;font-family:sans-serif;letter-spacing:0px;word-spacing:0px;fill:#000000;fill-opacity:1;stroke:none"
       transform="scale(0.26458333)"><flowRegion
         id="flowRegion1323"
         style="font-size:33.33333206px"><rect
           id="rect1325"
           width="88.571426"
           height="30"
           x="-617.14288"
           y="152.51968"
           style="font-size:33.33333206px" /></flowRegion><flowPara
         id="flowPara1327"
         style="font-size:33.33333206px">0.7e3</flowPara></flowRoot>    <text
       xml:space="preserve"
       style="font-style:normal;font-weight:normal;font-size:7.19340611px;line-height:1.25;font-family:sans-serif;letter-spacing:0px;word-spacing:0px;fill:#000000;fill-opacity:1;stroke:none;stroke-width:0.26458332"
       x="-177.98029"
       y="43.627529"
       id="text1331"
       transform="scale(0.9119635,1.0965351)"><tspan
         sodipodi:role="line"
         id="tspan1329"
         x="-177.98029"
         y="49.992008"
         style="font-size:12.84536934px;stroke-width:0.26458332" /></text>
    <g
       id="g1316">
      <g
         id="g1254">
        <path
           style="fill:none;stroke:#000000;stroke-width:0.5;stroke-linecap:butt;stroke-linejoin:miter;stroke-miterlimit:4;stroke-dasharray:1,0.5;stroke-opacity:1;marker-mid:url(#Arrow2Lend);stroke-dashoffset:0"
           d="M -430.40941,252.69768 V 131.17394"
           id="path939"
           inkscape:connector-curvature="0" />
        <path
           style="fill:none;stroke:#000000;stroke-width:0.49999997;stroke-linecap:butt;stroke-linejoin:miter;stroke-miterlimit:4;stroke-dasharray:0.99999994, 0.49999997;stroke-dashoffset:0;stroke-opacity:1;marker-mid:url(#Arrow2Lend-1)"
           d="m -433.33213,131.56773 h 5.84545"
           id="path939-7"
           inkscape:connector-curvature="0" />
        <path
           style="fill:none;stroke:#000000;stroke-width:0.49999997;stroke-linecap:butt;stroke-linejoin:miter;stroke-miterlimit:4;stroke-dasharray:0.99999995, 0.49999998;stroke-dashoffset:0;stroke-opacity:1;marker-mid:url(#Arrow2Lend-1-0)"
           d="m -433.33213,253.00533 h 5.84545"
           id="path939-7-3"
           inkscape:connector-curvature="0" />
      </g>
      <flowRoot
         transform="matrix(0.16458466,0,0,0.16279013,-275.99657,133.7408)"
         style="font-style:normal;font-weight:normal;font-size:18.66666603px;line-height:1.25;font-family:sans-serif;letter-spacing:0px;word-spacing:0px;fill:#000000;fill-opacity:1;stroke:none;stroke-width:1.61641848"
         id="flowRoot1333-0-4-6"
         xml:space="preserve"><flowRegion
           id="flowRegion1335-7-9-0"
           style="stroke-width:1.61641848"><rect
             y="-31.766029"
             x="-1017.1429"
             height="48.57143"
             width="122.85714"
             id="rect1337-8-5-6"
             style="stroke-width:1.61641848" /></flowRegion><flowPara
           style="font-size:33.33333206px;stroke-width:1.61641848"
           id="flowPara1339-6-0-2">1.0</flowPara></flowRoot>      <flowRoot
         transform="matrix(0.16458466,0,0,0.16279013,-275.7599,255.26455)"
         style="font-style:normal;font-weight:normal;font-size:18.66666603px;line-height:1.25;font-family:sans-serif;letter-spacing:0px;word-spacing:0px;fill:#000000;fill-opacity:1;stroke:none;stroke-width:1.61641848"
         id="flowRoot1333-0-4-6-6"
         xml:space="preserve"><flowRegion
           id="flowRegion1335-7-9-0-1"
           style="stroke-width:1.61641848"><rect
             y="-31.766029"
             x="-1017.1429"
             height="48.57143"
             width="122.85714"
             id="rect1337-8-5-6-8"
             style="stroke-width:1.61641848" /></flowRegion><flowPara
           style="font-size:33.33333206px;stroke-width:1.61641848"
           id="flowPara1339-6-0-2-7">0.0</flowPara></flowRoot>    </g>
    <rect
       style="opacity:1;vector-effect:none;fill:#ffffff;fill-opacity:1;stroke:#000000;stroke-width:0.49999997;stroke-linecap:butt;stroke-linejoin:miter;stroke-miterlimit:4;stroke-dasharray:none;stroke-dashoffset:0;stroke-opacity:1"
       id="rect959"
       width="7.5"
       height="25.5"
       x="-422.13263"
       y="227.81168" />
    <text
       xml:space="preserve"
       style="font-style:normal;font-weight:normal;font-size:2.17075109px;line-height:1.25;font-family:sans-serif;letter-spacing:0px;word-spacing:0px;fill:#000000;fill-opacity:1;stroke:none;stroke-width:0.26458341"
       x="-422.60049"
       y="258.22974"
       id="text1099-2-3"><tspan
         sodipodi:role="line"
         id="tspan1097-8-6"
         x="-422.60049"
         y="258.22974"
         style="font-style:italic;font-variant:normal;font-weight:normal;font-stretch:normal;font-size:3.87634063px;font-family:sans-serif;-inkscape-font-specification:'sans-serif Italic';stroke-width:0.26458341">nice</tspan></text>
    <rect
       style="opacity:1;vector-effect:none;fill:#ffffff;fill-opacity:1;stroke:#000000;stroke-width:0.5;stroke-linecap:butt;stroke-linejoin:miter;stroke-miterlimit:4;stroke-dasharray:none;stroke-dashoffset:0;stroke-opacity:1"
       id="rect959-9"
       width="7.5"
       height="17.5"
       x="-408.41797"
       y="235.81168" />
    <rect
       style="opacity:1;vector-effect:none;fill:#ffffff;fill-opacity:1;stroke:#000000;stroke-width:0.5;stroke-linecap:butt;stroke-linejoin:miter;stroke-miterlimit:4;stroke-dasharray:none;stroke-dashoffset:0;stroke-opacity:1"
       id="rect959-20"
       width="7.5"
       height="16.5"
       x="-394.70331"
       y="236.81168" />
    <rect
       style="opacity:1;vector-effect:none;fill:#ffffff;fill-opacity:1;stroke:#000000;stroke-width:0.5;stroke-linecap:butt;stroke-linejoin:miter;stroke-miterlimit:4;stroke-dasharray:none;stroke-dashoffset:0;stroke-opacity:1"
       id="rect959-9-2"
       width="7.5"
       height="14.5"
       x="-380.98865"
       y="238.81168" />
    <rect
       style="opacity:1;vector-effect:none;fill:#ffffff;fill-opacity:1;stroke:#000000;stroke-width:0.5;stroke-linecap:butt;stroke-linejoin:miter;stroke-miterlimit:4;stroke-dasharray:none;stroke-dashoffset:0;stroke-opacity:1"
       id="rect959-3"
       width="7.5"
       height="12.5"
       x="-367.27399"
       y="240.81168" />
    <rect
       style="opacity:1;vector-effect:none;fill:#ffffff;fill-opacity:1;stroke:#000000;stroke-width:0.5;stroke-linecap:butt;stroke-linejoin:miter;stroke-miterlimit:4;stroke-dasharray:none;stroke-dashoffset:0;stroke-opacity:1"
       id="rect959-9-7"
       width="7.5"
       height="11.5"
       x="-353.55933"
       y="241.81168" />
    <rect
       style="opacity:1;vector-effect:none;fill:#ffffff;fill-opacity:1;stroke:#000000;stroke-width:0.5;stroke-linecap:butt;stroke-linejoin:miter;stroke-miterlimit:4;stroke-dasharray:none;stroke-dashoffset:0;stroke-opacity:1"
       id="rect959-20-5"
       width="7.5"
       height="9.5"
       x="-339.8447"
       y="243.81168" />
    <rect
       style="opacity:1;vector-effect:none;fill:#ffffff;fill-opacity:1;stroke:#000000;stroke-width:0.5;stroke-linecap:butt;stroke-linejoin:miter;stroke-miterlimit:4;stroke-dasharray:none;stroke-dashoffset:0;stroke-opacity:1"
       id="rect959-9-2-9"
       width="7.5"
       height="9.5"
       x="-326.13004"
       y="243.81168" />
    <rect
       style="opacity:1;vector-effect:none;fill:#ffffff;fill-opacity:1;stroke:#000000;stroke-width:0.5;stroke-linecap:butt;stroke-linejoin:miter;stroke-miterlimit:4;stroke-dasharray:none;stroke-dashoffset:0;stroke-opacity:1"
       id="rect959-20-5-2"
       width="7.5"
       height="8"
       x="-312.41537"
       y="245.31168" />
    <rect
       style="opacity:1;vector-effect:none;fill:#ffffff;fill-opacity:1;stroke:#000000;stroke-width:0.5;stroke-linecap:butt;stroke-linejoin:miter;stroke-miterlimit:4;stroke-dasharray:none;stroke-dashoffset:0;stroke-opacity:1"
       id="rect959-9-2-9-2"
       width="7.5"
       height="5.6199999"
       x="-298.70071"
       y="247.69168" />
    <text
       xml:space="preserve"
       style="font-style:normal;font-weight:normal;font-size:2.17075109px;line-height:1.25;font-family:sans-serif;letter-spacing:0px;word-spacing:0px;fill:#000000;fill-opacity:1;stroke:none;stroke-width:0.26458341"
       x="-408.50153"
       y="257.85403"
       id="text1099-2-3-4"><tspan
         sodipodi:role="line"
         id="tspan1097-8-6-7"
         x="-408.50153"
         y="257.85403"
         style="font-style:italic;font-variant:normal;font-weight:normal;font-stretch:normal;font-size:3.87634087px;font-family:sans-serif;-inkscape-font-specification:'sans-serif Italic';stroke-width:0.26458341">dog</tspan></text>
    <text
       xml:space="preserve"
       style="font-style:normal;font-weight:normal;font-size:2.17075109px;line-height:1.25;font-family:sans-serif;letter-spacing:0px;word-spacing:0px;fill:#000000;fill-opacity:1;stroke:none;stroke-width:0.26458341"
       x="-314.43076"
       y="258.22974"
       id="text1099-2-3-4-8"><tspan
         sodipodi:role="line"
         id="tspan1097-8-6-7-4"
         x="-314.43076"
         y="258.22974"
         style="font-style:italic;font-variant:normal;font-weight:normal;font-stretch:normal;font-size:3.8763411px;font-family:sans-serif;-inkscape-font-specification:'sans-serif Italic';stroke-width:0.26458341">house</tspan></text>
    <text
       xml:space="preserve"
       style="font-style:normal;font-weight:normal;font-size:2.17075109px;line-height:1.25;font-family:sans-serif;letter-spacing:0px;word-spacing:0px;fill:#000000;fill-opacity:1;stroke:none;stroke-width:0.26458341"
       x="-394.33536"
       y="257.84268"
       id="text1099-2-3-4-5"><tspan
         sodipodi:role="line"
         id="tspan1097-8-6-7-0"
         x="-394.33536"
         y="257.84268"
         style="font-style:italic;font-variant:normal;font-weight:normal;font-stretch:normal;font-size:3.8763411px;font-family:sans-serif;-inkscape-font-specification:'sans-serif Italic';stroke-width:0.26458341">car</tspan></text>
    <text
       xml:space="preserve"
       style="font-style:normal;font-weight:normal;font-size:2.17075109px;line-height:1.25;font-family:sans-serif;letter-spacing:0px;word-spacing:0px;fill:#000000;fill-opacity:1;stroke:none;stroke-width:0.26458341"
       x="-384.45438"
       y="257.84268"
       id="text1099-2-3-4-3"><tspan
         sodipodi:role="line"
         id="tspan1097-8-6-7-6"
         x="-384.45438"
         y="257.84268"
         style="font-style:italic;font-variant:normal;font-weight:normal;font-stretch:normal;font-size:3.8763411px;font-family:sans-serif;-inkscape-font-specification:'sans-serif Italic';stroke-width:0.26458341">woman</tspan></text>
    <text
       xml:space="preserve"
       style="font-style:normal;font-weight:normal;font-size:2.17075109px;line-height:1.25;font-family:sans-serif;letter-spacing:0px;word-spacing:0px;fill:#000000;fill-opacity:1;stroke:none;stroke-width:0.26458341"
       x="-354.08923"
       y="257.84268"
       id="text1099-2-3-4-1"><tspan
         sodipodi:role="line"
         id="tspan1097-8-6-7-06"
         x="-354.08923"
         y="257.84268"
         style="font-style:italic;font-variant:normal;font-weight:normal;font-stretch:normal;font-size:3.8763411px;font-family:sans-serif;-inkscape-font-specification:'sans-serif Italic';stroke-width:0.26458341">man</tspan></text>
    <text
       xml:space="preserve"
       style="font-style:normal;font-weight:normal;font-size:2.17075109px;line-height:1.25;font-family:sans-serif;letter-spacing:0px;word-spacing:0px;fill:#000000;fill-opacity:1;stroke:none;stroke-width:0.26458341"
       x="-342.57385"
       y="257.85403"
       id="text1099-2-3-4-32"><tspan
         sodipodi:role="line"
         id="tspan1097-8-6-7-061"
         x="-342.57385"
         y="257.85403"
         style="font-style:italic;font-variant:normal;font-weight:normal;font-stretch:normal;font-size:3.8763411px;font-family:sans-serif;-inkscape-font-specification:'sans-serif Italic';stroke-width:0.26458341">people</tspan></text>
    <text
       xml:space="preserve"
       style="font-style:normal;font-weight:normal;font-size:2.17075109px;line-height:1.25;font-family:sans-serif;letter-spacing:0px;word-spacing:0px;fill:#000000;fill-opacity:1;stroke:none;stroke-width:0.26458341"
       x="-367.28723"
       y="257.46698"
       id="text1099-2-3-4-32-5"><tspan
         sodipodi:role="line"
         id="tspan1097-8-6-7-061-5"
         x="-367.28723"
         y="257.46698"
         style="font-style:italic;font-variant:normal;font-weight:normal;font-stretch:normal;font-size:3.8763411px;font-family:sans-serif;-inkscape-font-specification:'sans-serif Italic';stroke-width:0.26458341">guy</tspan></text>
    <text
       xml:space="preserve"
       style="font-style:normal;font-weight:normal;font-size:2.17075109px;line-height:1.25;font-family:sans-serif;letter-spacing:0px;word-spacing:0px;fill:#000000;fill-opacity:1;stroke:none;stroke-width:0.26458341"
       x="-325.34238"
       y="257.85403"
       id="text1099-2-3-4-32-4"><tspan
         sodipodi:role="line"
         id="tspan1097-8-6-7-061-7"
         x="-325.34238"
         y="257.85403"
         style="font-style:italic;font-variant:normal;font-weight:normal;font-stretch:normal;font-size:3.8763411px;font-family:sans-serif;-inkscape-font-specification:'sans-serif Italic';stroke-width:0.26458341">big</tspan></text>
    <text
       xml:space="preserve"
       style="font-style:normal;font-weight:normal;font-size:2.17075109px;line-height:1.25;font-family:sans-serif;letter-spacing:0px;word-spacing:0px;fill:#000000;fill-opacity:1;stroke:none;stroke-width:0.26458341"
       x="-298.01602"
       y="258.11807"
       id="text1099-2-3-4-32-9"><tspan
         sodipodi:role="line"
         id="tspan1097-8-6-7-061-3"
         x="-298.01602"
         y="258.11807"
         style="font-style:italic;font-variant:normal;font-weight:normal;font-stretch:normal;font-size:3.8763411px;font-family:sans-serif;-inkscape-font-specification:'sans-serif Italic';stroke-width:0.26458341">cat</tspan></text>
    <flowRoot
       xml:space="preserve"
       id="flowRoot1545"
       style="fill:black;fill-opacity:1;stroke:none;font-family:sans-serif;font-style:normal;font-weight:normal;font-size:18.66666667px;line-height:1.25;letter-spacing:0px;word-spacing:0px"><flowRegion
         id="flowRegion1547"><rect
           id="rect1549"
           width="200"
           height="116.50485"
           x="-1445.6311"
           y="915.72357" /></flowRegion><flowPara
         id="flowPara1551" /></flowRoot>    <rect
       style="opacity:1;vector-effect:none;fill:#ffffff;fill-opacity:1;stroke:#000000;stroke-width:0.49999997;stroke-linecap:butt;stroke-linejoin:miter;stroke-miterlimit:4;stroke-dasharray:none;stroke-dashoffset:0;stroke-opacity:1"
       id="rect959-8"
       width="7.5"
       height="69.5"
       x="-245.44417"
       y="184.01996" />
    <rect
       style="opacity:1;vector-effect:none;fill:#ffffff;fill-opacity:1;stroke:#000000;stroke-width:0.5;stroke-linecap:butt;stroke-linejoin:miter;stroke-miterlimit:4;stroke-dasharray:none;stroke-dashoffset:0;stroke-opacity:1"
       id="rect959-9-9"
       width="7.5"
       height="39.5"
       x="-231.72951"
       y="214.01996" />
    <rect
       style="opacity:1;vector-effect:none;fill:#ffffff;fill-opacity:1;stroke:#000000;stroke-width:0.5;stroke-linecap:butt;stroke-linejoin:miter;stroke-miterlimit:4;stroke-dasharray:none;stroke-dashoffset:0;stroke-opacity:1"
       id="rect959-20-7"
       width="7.5"
       height="11.5"
       x="-218.01485"
       y="242.01996" />
    <rect
       style="opacity:1;vector-effect:none;fill:#ffffff;fill-opacity:1;stroke:#000000;stroke-width:0.49999997;stroke-linecap:butt;stroke-linejoin:miter;stroke-miterlimit:4;stroke-dasharray:none;stroke-dashoffset:0;stroke-opacity:1"
       id="rect959-9-2-3"
       width="7.5"
       height="2"
       x="-204.30019"
       y="251.51996" />
    <rect
       style="opacity:1;vector-effect:none;fill:#ffffff;fill-opacity:1;stroke:#000000;stroke-width:0.49999991;stroke-linecap:butt;stroke-linejoin:miter;stroke-miterlimit:4;stroke-dasharray:none;stroke-dashoffset:0;stroke-opacity:1"
       id="rect959-3-6"
       width="7.5"
       height="0.9000001"
       x="-190.58553"
       y="-253.51996"
       transform="scale(1,-1)" />
    <rect
       style="opacity:1;vector-effect:none;fill:#ffffff;fill-opacity:1;stroke:#000000;stroke-width:0.49999985;stroke-linecap:butt;stroke-linejoin:miter;stroke-miterlimit:4;stroke-dasharray:none;stroke-dashoffset:0;stroke-opacity:1"
       id="rect959-9-7-1"
       width="7.5"
       height="0.099999934"
       x="-176.87086"
       y="-253.51996"
       transform="scale(1,-1)" />
    <rect
       style="opacity:1;vector-effect:none;fill:#ffffff;fill-opacity:1;stroke:#000000;stroke-width:0.5;stroke-linecap:butt;stroke-linejoin:miter;stroke-miterlimit:4;stroke-dasharray:none;stroke-dashoffset:0;stroke-opacity:1"
       id="rect959-20-5-29"
       width="7.5"
       height="0.1"
       x="-163.15623"
       y="-253.51996"
       transform="scale(1,-1)" />
    <rect
       style="opacity:1;vector-effect:none;fill:#ffffff;fill-opacity:1;stroke:#000000;stroke-width:0.49999997;stroke-linecap:butt;stroke-linejoin:miter;stroke-miterlimit:4;stroke-dasharray:none;stroke-dashoffset:0;stroke-opacity:1"
       id="rect959-9-2-9-3"
       width="7.5"
       height="0.1"
       x="-149.44157"
       y="-253.51996"
       transform="scale(1,-1)" />
    <rect
       style="opacity:1;vector-effect:none;fill:#ffffff;fill-opacity:1;stroke:#000000;stroke-width:0.49999997;stroke-linecap:butt;stroke-linejoin:miter;stroke-miterlimit:4;stroke-dasharray:none;stroke-dashoffset:0;stroke-opacity:1"
       id="rect959-20-5-2-1"
       width="7.5"
       height="0.1"
       x="-135.72691"
       y="-253.51996"
       transform="scale(1,-1)" />
    <rect
       style="opacity:1;vector-effect:none;fill:#ffffff;fill-opacity:1;stroke:#000000;stroke-width:0.49999997;stroke-linecap:butt;stroke-linejoin:miter;stroke-miterlimit:4;stroke-dasharray:none;stroke-dashoffset:0;stroke-opacity:1"
       id="rect959-9-2-9-2-9"
       width="7.5"
       height="0.1"
       x="-122.01223"
       y="-253.51996"
       transform="scale(1,-1)" />
    <text
       xml:space="preserve"
       style="font-style:normal;font-weight:normal;font-size:2.17075109px;line-height:1.25;font-family:sans-serif;letter-spacing:0px;word-spacing:0px;fill:#000000;fill-opacity:1;stroke:none;stroke-width:0.26458341"
       x="-247.62352"
       y="258.34143"
       id="text1099-2-3-7"><tspan
         sodipodi:role="line"
         id="tspan1097-8-6-4"
         x="-247.62352"
         y="258.34143"
         style="font-style:italic;font-variant:normal;font-weight:normal;font-stretch:normal;font-size:3.87634087px;font-family:sans-serif;-inkscape-font-specification:'sans-serif Italic';stroke-width:0.26458341">drives</tspan></text>
    <text
       xml:space="preserve"
       style="font-style:normal;font-weight:normal;font-size:2.17075109px;line-height:1.25;font-family:sans-serif;letter-spacing:0px;word-spacing:0px;fill:#000000;fill-opacity:1;stroke:none;stroke-width:0.26458341"
       x="-229.82043"
       y="258.34143"
       id="text1099-2-3-4-52"><tspan
         sodipodi:role="line"
         id="tspan1097-8-6-7-5"
         x="-229.82043"
         y="258.34143"
         style="font-style:italic;font-variant:normal;font-weight:normal;font-stretch:normal;font-size:3.8763411px;font-family:sans-serif;-inkscape-font-specification:'sans-serif Italic';stroke-width:0.26458341">is</tspan></text>
    <text
       xml:space="preserve"
       style="font-style:normal;font-weight:normal;font-size:2.17075109px;line-height:1.25;font-family:sans-serif;letter-spacing:0px;word-spacing:0px;fill:#000000;fill-opacity:1;stroke:none;stroke-width:0.26458341"
       x="-136.27882"
       y="257.57864"
       id="text1099-2-3-4-8-4"><tspan
         sodipodi:role="line"
         id="tspan1097-8-6-7-4-7"
         x="-136.27882"
         y="257.57864"
         style="font-style:italic;font-variant:normal;font-weight:normal;font-stretch:normal;font-size:3.8763411px;font-family:sans-serif;-inkscape-font-specification:'sans-serif Italic';stroke-width:0.26458341">goes</tspan></text>
    <text
       xml:space="preserve"
       style="font-style:normal;font-weight:normal;font-size:2.17075109px;line-height:1.25;font-family:sans-serif;letter-spacing:0px;word-spacing:0px;fill:#000000;fill-opacity:1;stroke:none;stroke-width:0.26458341"
       x="-219.35838"
       y="258.22977"
       id="text1099-2-3-4-5-4"><tspan
         sodipodi:role="line"
         id="tspan1097-8-6-7-0-4"
         x="-219.35838"
         y="258.22977"
         style="font-style:italic;font-variant:normal;font-weight:normal;font-stretch:normal;font-size:3.8763411px;font-family:sans-serif;-inkscape-font-specification:'sans-serif Italic';stroke-width:0.26458341">turns</tspan></text>
    <text
       xml:space="preserve"
       style="font-style:normal;font-weight:normal;font-size:2.17075109px;line-height:1.25;font-family:sans-serif;letter-spacing:0px;word-spacing:0px;fill:#000000;fill-opacity:1;stroke:none;stroke-width:0.26458341"
       x="-205.77328"
       y="257.85403"
       id="text1099-2-3-4-3-3"><tspan
         sodipodi:role="line"
         id="tspan1097-8-6-7-6-0"
         x="-205.77328"
         y="257.85403"
         style="font-style:italic;font-variant:normal;font-weight:normal;font-stretch:normal;font-size:3.8763411px;font-family:sans-serif;-inkscape-font-specification:'sans-serif Italic';stroke-width:0.26458341">stops</tspan></text>
    <text
       xml:space="preserve"
       style="font-style:normal;font-weight:normal;font-size:2.17075109px;line-height:1.25;font-family:sans-serif;letter-spacing:0px;word-spacing:0px;fill:#000000;fill-opacity:1;stroke:none;stroke-width:0.26458341"
       x="-176.99562"
       y="258.34143"
       id="text1099-2-3-4-1-7"><tspan
         sodipodi:role="line"
         id="tspan1097-8-6-7-06-8"
         x="-176.99562"
         y="258.34143"
         style="font-style:italic;font-variant:normal;font-weight:normal;font-stretch:normal;font-size:3.8763411px;font-family:sans-serif;-inkscape-font-specification:'sans-serif Italic';stroke-width:0.26458341">and</tspan></text>
    <text
       xml:space="preserve"
       style="font-style:normal;font-weight:normal;font-size:2.17075109px;line-height:1.25;font-family:sans-serif;letter-spacing:0px;word-spacing:0px;fill:#000000;fill-opacity:1;stroke:none;stroke-width:0.26458341"
       x="-161.24696"
       y="258.22977"
       id="text1099-2-3-4-32-6"><tspan
         sodipodi:role="line"
         id="tspan1097-8-6-7-061-8"
         x="-161.24696"
         y="258.22977"
         style="font-style:italic;font-variant:normal;font-weight:normal;font-stretch:normal;font-size:3.8763411px;font-family:sans-serif;-inkscape-font-specification:'sans-serif Italic';stroke-width:0.26458341">to</tspan></text>
    <text
       xml:space="preserve"
       style="font-style:normal;font-weight:normal;font-size:2.17075109px;line-height:1.25;font-family:sans-serif;letter-spacing:0px;word-spacing:0px;fill:#000000;fill-opacity:1;stroke:none;stroke-width:0.26458341"
       x="-190.19362"
       y="257.57867"
       id="text1099-2-3-4-32-5-8"><tspan
         sodipodi:role="line"
         id="tspan1097-8-6-7-061-5-4"
         x="-190.19362"
         y="257.57867"
         style="font-style:italic;font-variant:normal;font-weight:normal;font-stretch:normal;font-size:3.8763411px;font-family:sans-serif;-inkscape-font-specification:'sans-serif Italic';stroke-width:0.26458341">has</tspan></text>
    <text
       xml:space="preserve"
       style="font-style:normal;font-weight:normal;font-size:2.17075109px;line-height:1.25;font-family:sans-serif;letter-spacing:0px;word-spacing:0px;fill:#000000;fill-opacity:1;stroke:none;stroke-width:0.26458341"
       x="-150.3654"
       y="257.95438"
       id="text1099-2-3-4-32-4-3"><tspan
         sodipodi:role="line"
         id="tspan1097-8-6-7-061-7-1"
         x="-150.3654"
         y="257.95438"
         style="font-style:italic;font-variant:normal;font-weight:normal;font-stretch:normal;font-size:3.8763411px;font-family:sans-serif;-inkscape-font-specification:'sans-serif Italic';stroke-width:0.26458341">sees</tspan></text>
    <text
       xml:space="preserve"
       style="font-style:normal;font-weight:normal;font-size:2.17075109px;line-height:1.25;font-family:sans-serif;letter-spacing:0px;word-spacing:0px;fill:#000000;fill-opacity:1;stroke:none;stroke-width:0.26458341"
       x="-123.03908"
       y="258.34143"
       id="text1099-2-3-4-32-9-4"><tspan
         sodipodi:role="line"
         id="tspan1097-8-6-7-061-3-9"
         x="-123.03908"
         y="258.34143"
         style="font-style:italic;font-variant:normal;font-weight:normal;font-stretch:normal;font-size:3.8763411px;font-family:sans-serif;-inkscape-font-specification:'sans-serif Italic';stroke-width:0.26458341">down</tspan></text>
    <g
       transform="matrix(0.66920965,0,0,0.66920965,-439.88109,202.63046)"
       id="g1802"
       style="stroke-width:1.49430001">
      <g
         style="font-style:normal;font-variant:normal;font-weight:normal;font-stretch:normal;letter-spacing:normal;word-spacing:normal;text-anchor:start;fill:none;fill-opacity:1;fill-rule:evenodd;stroke:#000000;stroke-width:1.49430001;stroke-linecap:butt;stroke-linejoin:miter;stroke-miterlimit:10.43299961;stroke-dasharray:none;stroke-dashoffset:0;stroke-opacity:1"
         id="content"
         transform="matrix(0.3,0,0,-0.3,-52.5,222.75)"
         xml:space="preserve"
         stroke-miterlimit="10.433"
         font-style="normal"
         font-variant="normal"
         font-weight="normal"
         font-stretch="normal"
         font-size-adjust="none"
         letter-spacing="normal"
         word-spacing="normal"><path
           style="fill:#000000;stroke-width:0"
           inkscape:connector-curvature="0"
           d="m 470.61,421.95 0.21,1.28 3.39,13.56 c 0.43,1.74 0.54,1.89 2.68,1.89 h 4.79 c 4.14,0 6.78,-1.34 6.78,-4.78 0,-1.95 -1,-6.23 -2.94,-8.03 -2.5,-2.23 -5.48,-2.64 -7.69,-2.64 h -7.01 l -0.21,-1.28 h 8.47 c 7.08,0 14,5.17 14,10.75 0,3.84 -3.28,7.53 -9.81,7.53 h -16.14 c -0.95,0 -1.5,0 -1.5,-0.95 0,-0.6 0.45,-0.6 1.45,-0.6 0.64,0 1.55,-0.04 2.14,-0.09 0.8,-0.11 1.1,-0.25 1.1,-0.8 0,-0.2 -0.05,-0.36 -0.21,-0.95 l -6.67,-26.75 c -0.5,-1.95 -0.59,-2.34 -4.53,-2.34 -0.84,0 -1.39,0 -1.39,-0.96 0,-0.59 0.59,-0.59 0.73,-0.59 1.41,0 4.94,0.16 6.33,0.16 1.05,0 2.14,-0.07 3.19,-0.07 1.11,0 2.2,-0.09 3.25,-0.09 0.34,0 0.98,0 0.98,1 0,0.55 -0.43,0.55 -1.39,0.55 -1.84,0 -3.23,0 -3.23,0.89 0,0.29 0.09,0.54 0.14,0.84 z"
           id="path1777" /><path
           style="fill:#000000;stroke-width:0"
           inkscape:connector-curvature="0"
           d="m 511,394.25 v 0.02 0.03 0.01 0.02 0.01 l -0.01,0.02 v 0.01 l -0.01,0.02 -0.01,0.02 -0.01,0.02 -0.01,0.02 -0.02,0.03 -0.01,0.02 -0.02,0.03 -0.02,0.03 -0.03,0.03 -0.02,0.03 -0.03,0.04 -0.02,0.02 -0.01,0.02 -0.02,0.02 -0.02,0.02 -0.02,0.02 -0.02,0.03 -0.02,0.02 -0.02,0.02 -0.02,0.03 -0.03,0.02 -0.02,0.03 -0.03,0.03 -0.03,0.03 -0.02,0.03 -0.03,0.03 -0.03,0.03 -0.03,0.03 -0.03,0.03 -0.04,0.04 -0.03,0.03 -0.04,0.04 -0.03,0.03 -0.04,0.04 -0.04,0.04 c -6.22,6.28 -7.81,15.69 -7.81,23.31 0,8.67 1.89,17.35 8.01,23.56 0.64,0.61 0.64,0.71 0.64,0.86 0,0.35 -0.18,0.49 -0.48,0.49 -0.5,0 -4.98,-3.38 -7.92,-9.7 -2.55,-5.49 -3.14,-11.02 -3.14,-15.21 0,-3.89 0.54,-9.9 3.28,-15.54 2.98,-6.13 7.28,-9.36 7.78,-9.36 0.3,0 0.48,0.14 0.48,0.5 z"
           id="path1779" /><path
           style="fill:#000000;stroke-width:0"
           inkscape:connector-curvature="0"
           d="m 536.85,423.09 0.03,0.1 0.02,0.11 0.03,0.12 0.03,0.11 0.02,0.12 0.03,0.12 0.06,0.25 0.07,0.25 0.06,0.25 0.06,0.24 0.06,0.25 0.03,0.11 0.03,0.12 0.02,0.11 0.03,0.11 0.03,0.1 0.02,0.1 0.02,0.1 0.02,0.09 0.02,0.08 0.01,0.08 0.02,0.07 0.01,0.06 0.01,0.06 0.01,0.05 v 0.04 0.03 c 0,0.91 -0.7,1.35 -1.45,1.35 -0.6,0 -1.49,-0.39 -1.83,-1.39 -0.16,-0.35 -2.5,-9.86 -2.84,-11.16 -0.36,-1.5 -0.46,-2.39 -0.46,-3.3 0,-0.54 0,-0.64 0.05,-0.89 -1.14,-2.64 -2.64,-4.18 -4.58,-4.18 -3.98,0 -3.98,3.68 -3.98,4.53 0,1.59 0.25,3.54 2.59,9.67 0.55,1.48 0.85,2.19 0.85,3.19 0,2.23 -1.65,4.07 -4.1,4.07 -4.73,0 -6.58,-7.21 -6.58,-7.67 0,-0.5 0.5,-0.5 0.61,-0.5 0.5,0 0.55,0.11 0.8,0.91 1.34,4.62 3.28,6.17 5.03,6.17 0.44,0 1.25,-0.05 1.25,-1.64 0,-1.25 -0.56,-2.64 -0.91,-3.48 -2.18,-5.88 -2.78,-8.18 -2.78,-10.07 0,-4.53 3.33,-6.28 7.07,-6.28 0.86,0 3.18,0 5.18,3.49 1.3,-3.19 4.74,-3.49 6.24,-3.49 3.73,0 5.92,3.14 7.22,6.13 1.68,3.89 3.28,10.56 3.28,12.95 0,2.75 -1.35,3.48 -2.19,3.48 -1.25,0 -2.48,-1.29 -2.48,-2.39 0,-0.64 0.29,-0.93 0.73,-1.34 0.55,-0.55 1.8,-1.84 1.8,-4.23 0,-1.69 -1.44,-6.58 -2.74,-9.11 -1.29,-2.64 -3.04,-4.39 -5.48,-4.39 -2.35,0 -3.69,1.5 -3.69,4.32 0,1.41 0.34,2.96 0.55,3.64 z"
           id="path1781" /><path
           style="fill:#000000;stroke-width:0"
           inkscape:connector-curvature="0"
           d="m 558.72,441.78 -0.01,0.16 v 0.17 0.16 l -0.01,0.08 v 0.08 l -0.01,0.08 -0.01,0.08 -0.01,0.07 -0.01,0.07 -0.01,0.07 -0.02,0.07 -0.02,0.07 -0.02,0.06 -0.02,0.06 -0.03,0.06 -0.03,0.06 -0.04,0.05 -0.04,0.05 -0.04,0.05 -0.05,0.04 -0.05,0.04 -0.02,0.01 -0.03,0.02 -0.03,0.02 -0.03,0.01 -0.03,0.01 -0.04,0.02 -0.03,0.01 -0.03,0.01 -0.04,0.01 -0.04,0.01 h -0.04 l -0.04,0.01 h -0.04 l -0.04,0.01 h -0.05 -0.04 c -1,0 -1,-0.89 -1,-1.78 v -46.24 c 0,-0.9 0,-1.79 1,-1.79 1,0 1,0.89 1,1.79 z"
           id="path1783" /><path
           style="fill:#000000;stroke-width:0"
           inkscape:connector-curvature="0"
           d="m 572.22,435.54 -0.01,0.28 -0.01,0.27 -0.02,0.27 -0.02,0.26 -0.03,0.26 -0.04,0.25 -0.04,0.25 -0.06,0.24 -0.05,0.23 -0.07,0.23 -0.07,0.22 -0.08,0.21 -0.08,0.2 -0.09,0.2 -0.1,0.19 -0.1,0.18 -0.11,0.17 -0.12,0.16 -0.12,0.15 -0.13,0.15 -0.13,0.13 -0.14,0.12 -0.15,0.12 -0.15,0.1 -0.16,0.09 -0.17,0.08 -0.17,0.07 -0.17,0.05 -0.18,0.05 -0.19,0.03 -0.19,0.02 -0.2,0.01 c -1.73,0 -2.64,-1.35 -2.64,-2.64 0,-1.3 0.84,-2.64 2.64,-2.64 1,0 1.7,0.5 2,0.79 0.05,0.1 0.1,0.14 0.14,0.14 0.11,0 0.11,-0.68 0.11,-0.89 0,-1.59 -0.36,-5.18 -3.48,-8.26 -0.61,-0.6 -0.61,-0.71 -0.61,-0.85 0,-0.36 0.25,-0.56 0.5,-0.56 0.54,0 4.69,3.8 4.69,9.67 z"
           id="path1785" /><path
           style="fill:#000000;stroke-width:0"
           inkscape:connector-curvature="0"
           d="m 581.87,435.54 v 0.28 l -0.01,0.27 -0.02,0.27 -0.02,0.26 -0.04,0.26 -0.03,0.25 -0.05,0.25 -0.05,0.24 -0.06,0.23 -0.06,0.23 -0.07,0.22 -0.08,0.21 -0.08,0.2 -0.09,0.2 -0.1,0.19 -0.1,0.18 -0.11,0.17 -0.11,0.16 -0.13,0.15 -0.12,0.15 -0.14,0.13 -0.14,0.12 -0.14,0.12 -0.15,0.1 -0.16,0.09 -0.16,0.08 -0.17,0.07 -0.18,0.05 -0.18,0.05 -0.19,0.03 -0.19,0.02 -0.2,0.01 c -1.75,0 -2.64,-1.35 -2.64,-2.64 0,-1.3 0.85,-2.64 2.64,-2.64 1,0 1.69,0.5 1.99,0.79 0.06,0.1 0.11,0.14 0.15,0.14 0.1,0 0.1,-0.68 0.1,-0.89 0,-1.59 -0.35,-5.18 -3.49,-8.26 -0.59,-0.6 -0.59,-0.71 -0.59,-0.85 0,-0.36 0.25,-0.56 0.5,-0.56 0.55,0 4.67,3.8 4.67,9.67 z"
           id="path1787" /><path
           style="fill:#000000;stroke-width:0"
           inkscape:connector-curvature="0"
           d="m 622.73,439.93 h -30.45 l -0.94,-11.22 h 1.25 c 0.69,8.04 1.44,9.68 8.96,9.68 0.9,0 2.2,0 2.7,-0.11 1.05,-0.19 1.05,-0.74 1.05,-1.89 v -26.25 c 0,-1.71 0,-2.39 -5.24,-2.39 h -2 v -1.55 c 2.05,0.16 7.13,0.16 9.42,0.16 2.3,0 7.43,0 9.47,-0.16 v 1.55 h -2 c -5.23,0 -5.23,0.68 -5.23,2.39 v 26.25 c 0,1 0,1.7 0.9,1.89 0.55,0.11 1.9,0.11 2.85,0.11 7.51,0 8.26,-1.64 8.95,-9.68 h 1.25 z"
           id="path1789" /><path
           style="fill:#000000;stroke-width:0"
           inkscape:connector-curvature="0"
           d="m 631.03,409.98 v -0.1 -0.1 l -0.01,-0.19 -0.01,-0.18 -0.01,-0.17 -0.02,-0.15 -0.02,-0.15 -0.03,-0.13 -0.04,-0.12 -0.04,-0.11 -0.05,-0.11 -0.05,-0.09 -0.07,-0.09 -0.07,-0.08 -0.08,-0.07 -0.09,-0.06 -0.1,-0.05 -0.11,-0.05 -0.12,-0.05 -0.13,-0.03 -0.14,-0.04 -0.15,-0.02 -0.17,-0.03 -0.17,-0.01 -0.09,-0.01 -0.1,-0.01 -0.1,-0.01 h -0.1 l -0.11,-0.01 h -0.11 -0.11 l -0.12,-0.01 h -0.12 -0.12 -0.13 -0.13 -0.14 -0.13 -0.15 -0.14 -0.15 -0.16 v -1.55 c 1.75,0.05 4.28,0.16 5.63,0.16 1.29,0 3.89,-0.11 5.57,-0.16 v 1.55 c -3.32,0 -3.87,0 -3.87,2.23 v 9.17 c 0,5.19 3.53,7.97 6.72,7.97 3.14,0 3.69,-2.69 3.69,-5.53 v -11.61 c 0,-2.23 -0.55,-2.23 -3.9,-2.23 v -1.55 c 1.75,0.05 4.3,0.16 5.64,0.16 1.3,0 3.88,-0.11 5.58,-0.16 v 1.55 c -2.59,0 -3.84,0 -3.89,1.5 v 9.51 c 0,4.28 0,5.83 -1.54,7.61 -0.69,0.86 -2.35,1.84 -5.22,1.84 -4.19,0 -6.39,-2.98 -7.24,-4.87 v 17.44 l -7.17,-0.55 v -1.55 c 3.48,0 3.89,-0.34 3.89,-2.79 z"
           id="path1791" /><path
           style="fill:#000000;stroke-width:0"
           inkscape:connector-curvature="0"
           d="m 658.8,417.71 0.04,1.05 c 0.3,7.42 4.49,8.66 6.19,8.66 5.13,0 5.63,-6.72 5.63,-8.66 h -11.82 l -0.04,-1.05 h 13.9 c 1.1,0 1.24,0 1.24,1.05 0,4.92 -2.69,9.75 -8.91,9.75 -5.78,0 -10.37,-5.12 -10.37,-11.36 0,-6.67 5.23,-11.5 10.96,-11.5 6.08,0 8.32,5.53 8.32,6.47 0,0.5 -0.39,0.61 -0.64,0.61 -0.46,0 -0.55,-0.3 -0.66,-0.7 -1.73,-5.13 -6.22,-5.13 -6.72,-5.13 -2.5,0 -4.48,1.49 -5.62,3.33 -1.5,2.39 -1.5,5.69 -1.5,7.48 z"
           id="path1793" /><path
           style="fill:#000000;stroke-width:0"
           inkscape:connector-curvature="0"
           d="m 682.97,435.54 v 0.28 l -0.02,0.27 -0.01,0.27 -0.03,0.26 -0.03,0.26 -0.04,0.25 -0.04,0.25 -0.05,0.24 -0.06,0.23 -0.07,0.23 -0.07,0.22 -0.07,0.21 -0.09,0.2 -0.09,0.2 -0.1,0.19 -0.1,0.18 -0.11,0.17 -0.12,0.16 -0.12,0.15 -0.13,0.15 -0.13,0.13 -0.14,0.12 -0.15,0.12 -0.15,0.1 -0.16,0.09 -0.16,0.08 -0.17,0.07 -0.18,0.05 -0.18,0.05 -0.18,0.03 -0.2,0.02 -0.2,0.01 c -1.73,0 -2.64,-1.35 -2.64,-2.64 0,-1.3 0.85,-2.64 2.64,-2.64 1,0 1.71,0.5 2,0.79 0.05,0.1 0.1,0.14 0.15,0.14 0.11,0 0.11,-0.68 0.11,-0.89 0,-1.59 -0.36,-5.18 -3.49,-8.26 -0.61,-0.6 -0.61,-0.71 -0.61,-0.85 0,-0.36 0.25,-0.56 0.5,-0.56 0.55,0 4.69,3.8 4.69,9.67 z"
           id="path1795" /><path
           style="fill:#000000;stroke-width:0"
           inkscape:connector-curvature="0"
           d="m 692.62,435.54 v 0.28 l -0.01,0.27 -0.02,0.27 -0.02,0.26 -0.03,0.26 -0.04,0.25 -0.04,0.25 -0.05,0.24 -0.06,0.23 -0.07,0.23 -0.07,0.22 -0.07,0.21 -0.09,0.2 -0.09,0.2 -0.09,0.19 -0.11,0.18 -0.11,0.17 -0.11,0.16 -0.12,0.15 -0.13,0.15 -0.13,0.13 -0.14,0.12 -0.15,0.12 -0.15,0.1 -0.16,0.09 -0.16,0.08 -0.17,0.07 -0.18,0.05 -0.18,0.05 -0.18,0.03 -0.2,0.02 -0.19,0.01 c -1.75,0 -2.64,-1.35 -2.64,-2.64 0,-1.3 0.84,-2.64 2.64,-2.64 1,0 1.68,0.5 1.98,0.79 0.06,0.1 0.11,0.14 0.16,0.14 0.09,0 0.09,-0.68 0.09,-0.89 0,-1.59 -0.34,-5.18 -3.48,-8.26 -0.6,-0.6 -0.6,-0.71 -0.6,-0.85 0,-0.36 0.25,-0.56 0.5,-0.56 0.55,0 4.67,3.8 4.67,9.67 z"
           id="path1797" /><path
           style="fill:#000000;stroke-width:0"
           inkscape:connector-curvature="0"
           d="m 714.69,418.65 v 0.37 l -0.01,0.39 v 0.39 l -0.02,0.41 -0.04,0.84 -0.06,0.88 -0.08,0.92 -0.11,0.95 -0.13,0.97 -0.16,1.01 -0.2,1.02 -0.23,1.03 -0.27,1.05 -0.3,1.06 -0.35,1.07 -0.39,1.07 -0.22,0.53 -0.22,0.53 -0.24,0.53 -0.25,0.53 c -2.98,6.12 -7.26,9.36 -7.76,9.36 -0.3,0 -0.5,-0.19 -0.5,-0.49 0,-0.15 0,-0.25 0.93,-1.15 4.89,-4.92 7.74,-12.85 7.74,-23.27 0,-8.51 -1.85,-17.28 -8.04,-23.56 -0.63,-0.59 -0.63,-0.7 -0.63,-0.84 0,-0.3 0.2,-0.5 0.5,-0.5 0.5,0 4.96,3.39 7.92,9.71 2.53,5.47 3.12,11 3.12,15.19 z"
           id="path1799" /></g>    </g>
    <g
       id="g2180"
       transform="matrix(0.66920965,0,0,0.66920965,-276.01292,202.55864)"
       style="stroke-width:1.49429989">
      <g
         word-spacing="normal"
         letter-spacing="normal"
         font-size-adjust="none"
         font-stretch="normal"
         font-weight="normal"
         font-variant="normal"
         font-style="normal"
         stroke-miterlimit="10.433"
         xml:space="preserve"
         transform="matrix(0.3,0,0,-0.3,-52.5,222.75)"
         id="g2178"
         style="font-style:normal;font-variant:normal;font-weight:normal;font-stretch:normal;letter-spacing:normal;word-spacing:normal;text-anchor:start;fill:none;fill-opacity:1;fill-rule:evenodd;stroke:#000000;stroke-width:1.49429989;stroke-linecap:butt;stroke-linejoin:miter;stroke-miterlimit:10.43299961;stroke-dasharray:none;stroke-dashoffset:0;stroke-opacity:1"><path
           id="path2138"
           d="m 470.61,421.95 0.21,1.28 3.39,13.56 c 0.43,1.74 0.54,1.89 2.68,1.89 h 4.79 c 4.14,0 6.78,-1.34 6.78,-4.78 0,-1.95 -1,-6.23 -2.94,-8.03 -2.5,-2.23 -5.48,-2.64 -7.69,-2.64 h -7.01 l -0.21,-1.28 h 8.47 c 7.08,0 14,5.17 14,10.75 0,3.84 -3.28,7.53 -9.81,7.53 h -16.14 c -0.95,0 -1.5,0 -1.5,-0.95 0,-0.6 0.45,-0.6 1.45,-0.6 0.64,0 1.55,-0.04 2.14,-0.09 0.8,-0.11 1.1,-0.25 1.1,-0.8 0,-0.2 -0.05,-0.36 -0.21,-0.95 l -6.67,-26.75 c -0.5,-1.95 -0.59,-2.34 -4.53,-2.34 -0.84,0 -1.39,0 -1.39,-0.96 0,-0.59 0.59,-0.59 0.73,-0.59 1.41,0 4.94,0.16 6.33,0.16 1.05,0 2.14,-0.07 3.19,-0.07 1.11,0 2.2,-0.09 3.25,-0.09 0.34,0 0.98,0 0.98,1 0,0.55 -0.43,0.55 -1.39,0.55 -1.84,0 -3.23,0 -3.23,0.89 0,0.29 0.09,0.54 0.14,0.84 z"
           inkscape:connector-curvature="0"
           style="fill:#000000;stroke-width:0" /><path
           id="path2140"
           d="m 511,394.25 v 0.02 0.03 0.01 0.02 0.01 l -0.01,0.02 v 0.01 l -0.01,0.02 -0.01,0.02 -0.01,0.02 -0.01,0.02 -0.02,0.03 -0.01,0.02 -0.02,0.03 -0.02,0.03 -0.03,0.03 -0.02,0.03 -0.03,0.04 -0.02,0.02 -0.01,0.02 -0.02,0.02 -0.02,0.02 -0.02,0.02 -0.02,0.03 -0.02,0.02 -0.02,0.02 -0.02,0.03 -0.03,0.02 -0.02,0.03 -0.03,0.03 -0.03,0.03 -0.02,0.03 -0.03,0.03 -0.03,0.03 -0.03,0.03 -0.03,0.03 -0.04,0.04 -0.03,0.03 -0.04,0.04 -0.03,0.03 -0.04,0.04 -0.04,0.04 c -6.22,6.28 -7.81,15.69 -7.81,23.31 0,8.67 1.89,17.35 8.01,23.56 0.64,0.61 0.64,0.71 0.64,0.86 0,0.35 -0.18,0.49 -0.48,0.49 -0.5,0 -4.98,-3.38 -7.92,-9.7 -2.55,-5.49 -3.14,-11.02 -3.14,-15.21 0,-3.89 0.54,-9.9 3.28,-15.54 2.98,-6.13 7.28,-9.36 7.78,-9.36 0.3,0 0.48,0.14 0.48,0.5 z"
           inkscape:connector-curvature="0"
           style="fill:#000000;stroke-width:0" /><path
           id="path2142"
           d="m 536.85,423.09 0.03,0.1 0.02,0.11 0.03,0.12 0.03,0.11 0.02,0.12 0.03,0.12 0.06,0.25 0.07,0.25 0.06,0.25 0.06,0.24 0.06,0.25 0.03,0.11 0.03,0.12 0.02,0.11 0.03,0.11 0.03,0.1 0.02,0.1 0.02,0.1 0.02,0.09 0.02,0.08 0.01,0.08 0.02,0.07 0.01,0.06 0.01,0.06 0.01,0.05 v 0.04 0.03 c 0,0.91 -0.7,1.35 -1.45,1.35 -0.6,0 -1.49,-0.39 -1.83,-1.39 -0.16,-0.35 -2.5,-9.86 -2.84,-11.16 -0.36,-1.5 -0.46,-2.39 -0.46,-3.3 0,-0.54 0,-0.64 0.05,-0.89 -1.14,-2.64 -2.64,-4.18 -4.58,-4.18 -3.98,0 -3.98,3.68 -3.98,4.53 0,1.59 0.25,3.54 2.59,9.67 0.55,1.48 0.85,2.19 0.85,3.19 0,2.23 -1.65,4.07 -4.1,4.07 -4.73,0 -6.58,-7.21 -6.58,-7.67 0,-0.5 0.5,-0.5 0.61,-0.5 0.5,0 0.55,0.11 0.8,0.91 1.34,4.62 3.28,6.17 5.03,6.17 0.44,0 1.25,-0.05 1.25,-1.64 0,-1.25 -0.56,-2.64 -0.91,-3.48 -2.18,-5.88 -2.78,-8.18 -2.78,-10.07 0,-4.53 3.33,-6.28 7.07,-6.28 0.86,0 3.18,0 5.18,3.49 1.3,-3.19 4.74,-3.49 6.24,-3.49 3.73,0 5.92,3.14 7.22,6.13 1.68,3.89 3.28,10.56 3.28,12.95 0,2.75 -1.35,3.48 -2.19,3.48 -1.25,0 -2.48,-1.29 -2.48,-2.39 0,-0.64 0.29,-0.93 0.73,-1.34 0.55,-0.55 1.8,-1.84 1.8,-4.23 0,-1.69 -1.44,-6.58 -2.74,-9.11 -1.29,-2.64 -3.04,-4.39 -5.48,-4.39 -2.35,0 -3.69,1.5 -3.69,4.32 0,1.41 0.34,2.96 0.55,3.64 z"
           inkscape:connector-curvature="0"
           style="fill:#000000;stroke-width:0" /><path
           id="path2144"
           d="m 558.72,441.78 -0.01,0.16 v 0.17 0.16 l -0.01,0.08 v 0.08 l -0.01,0.08 -0.01,0.08 -0.01,0.07 -0.01,0.07 -0.01,0.07 -0.02,0.07 -0.02,0.07 -0.02,0.06 -0.02,0.06 -0.03,0.06 -0.03,0.06 -0.04,0.05 -0.04,0.05 -0.04,0.05 -0.05,0.04 -0.05,0.04 -0.02,0.01 -0.03,0.02 -0.03,0.02 -0.03,0.01 -0.03,0.01 -0.04,0.02 -0.03,0.01 -0.03,0.01 -0.04,0.01 -0.04,0.01 h -0.04 l -0.04,0.01 h -0.04 l -0.04,0.01 h -0.05 -0.04 c -1,0 -1,-0.89 -1,-1.78 v -46.24 c 0,-0.9 0,-1.79 1,-1.79 1,0 1,0.89 1,1.79 z"
           inkscape:connector-curvature="0"
           style="fill:#000000;stroke-width:0" /><path
           id="path2146"
           d="m 572.22,435.54 -0.01,0.28 -0.01,0.27 -0.02,0.27 -0.02,0.26 -0.03,0.26 -0.04,0.25 -0.04,0.25 -0.06,0.24 -0.05,0.23 -0.07,0.23 -0.07,0.22 -0.08,0.21 -0.08,0.2 -0.09,0.2 -0.1,0.19 -0.1,0.18 -0.11,0.17 -0.12,0.16 -0.12,0.15 -0.13,0.15 -0.13,0.13 -0.14,0.12 -0.15,0.12 -0.15,0.1 -0.16,0.09 -0.17,0.08 -0.17,0.07 -0.17,0.05 -0.18,0.05 -0.19,0.03 -0.19,0.02 -0.2,0.01 c -1.73,0 -2.64,-1.35 -2.64,-2.64 0,-1.3 0.84,-2.64 2.64,-2.64 1,0 1.7,0.5 2,0.79 0.05,0.1 0.1,0.14 0.14,0.14 0.11,0 0.11,-0.68 0.11,-0.89 0,-1.59 -0.36,-5.18 -3.48,-8.26 -0.61,-0.6 -0.61,-0.71 -0.61,-0.85 0,-0.36 0.25,-0.56 0.5,-0.56 0.54,0 4.69,3.8 4.69,9.67 z"
           inkscape:connector-curvature="0"
           style="fill:#000000;stroke-width:0" /><path
           id="path2148"
           d="m 581.87,435.54 v 0.28 l -0.01,0.27 -0.02,0.27 -0.02,0.26 -0.04,0.26 -0.03,0.25 -0.05,0.25 -0.05,0.24 -0.06,0.23 -0.06,0.23 -0.07,0.22 -0.08,0.21 -0.08,0.2 -0.09,0.2 -0.1,0.19 -0.1,0.18 -0.11,0.17 -0.11,0.16 -0.13,0.15 -0.12,0.15 -0.14,0.13 -0.14,0.12 -0.14,0.12 -0.15,0.1 -0.16,0.09 -0.16,0.08 -0.17,0.07 -0.18,0.05 -0.18,0.05 -0.19,0.03 -0.19,0.02 -0.2,0.01 c -1.75,0 -2.64,-1.35 -2.64,-2.64 0,-1.3 0.85,-2.64 2.64,-2.64 1,0 1.69,0.5 1.99,0.79 0.06,0.1 0.11,0.14 0.15,0.14 0.1,0 0.1,-0.68 0.1,-0.89 0,-1.59 -0.35,-5.18 -3.49,-8.26 -0.59,-0.6 -0.59,-0.71 -0.59,-0.85 0,-0.36 0.25,-0.56 0.5,-0.56 0.55,0 4.67,3.8 4.67,9.67 z"
           inkscape:connector-curvature="0"
           style="fill:#000000;stroke-width:0" /><path
           id="path2150"
           d="m 622.73,439.93 h -30.45 l -0.94,-11.22 h 1.25 c 0.69,8.04 1.44,9.68 8.96,9.68 0.9,0 2.2,0 2.7,-0.11 1.05,-0.19 1.05,-0.74 1.05,-1.89 v -26.25 c 0,-1.71 0,-2.39 -5.24,-2.39 h -2 v -1.55 c 2.05,0.16 7.13,0.16 9.42,0.16 2.3,0 7.43,0 9.47,-0.16 v 1.55 h -2 c -5.23,0 -5.23,0.68 -5.23,2.39 v 26.25 c 0,1 0,1.7 0.9,1.89 0.55,0.11 1.9,0.11 2.85,0.11 7.51,0 8.26,-1.64 8.95,-9.68 h 1.25 z"
           inkscape:connector-curvature="0"
           style="fill:#000000;stroke-width:0" /><path
           id="path2152"
           d="m 631.03,409.98 v -0.1 -0.1 l -0.01,-0.19 -0.01,-0.18 -0.01,-0.17 -0.02,-0.15 -0.02,-0.15 -0.03,-0.13 -0.04,-0.12 -0.04,-0.11 -0.05,-0.11 -0.05,-0.09 -0.07,-0.09 -0.07,-0.08 -0.08,-0.07 -0.09,-0.06 -0.1,-0.05 -0.11,-0.05 -0.12,-0.05 -0.13,-0.03 -0.14,-0.04 -0.15,-0.02 -0.17,-0.03 -0.17,-0.01 -0.09,-0.01 -0.1,-0.01 -0.1,-0.01 h -0.1 l -0.11,-0.01 h -0.11 -0.11 l -0.12,-0.01 h -0.12 -0.12 -0.13 -0.13 -0.14 -0.13 -0.15 -0.14 -0.15 -0.16 v -1.55 c 1.75,0.05 4.28,0.16 5.63,0.16 1.29,0 3.89,-0.11 5.57,-0.16 v 1.55 c -3.32,0 -3.87,0 -3.87,2.23 v 9.17 c 0,5.19 3.53,7.97 6.72,7.97 3.14,0 3.69,-2.69 3.69,-5.53 v -11.61 c 0,-2.23 -0.55,-2.23 -3.9,-2.23 v -1.55 c 1.75,0.05 4.3,0.16 5.64,0.16 1.3,0 3.88,-0.11 5.58,-0.16 v 1.55 c -2.59,0 -3.84,0 -3.89,1.5 v 9.51 c 0,4.28 0,5.83 -1.54,7.61 -0.69,0.86 -2.35,1.84 -5.22,1.84 -4.19,0 -6.39,-2.98 -7.24,-4.87 v 17.44 l -7.17,-0.55 v -1.55 c 3.48,0 3.89,-0.34 3.89,-2.79 z"
           inkscape:connector-curvature="0"
           style="fill:#000000;stroke-width:0" /><path
           id="path2154"
           d="m 658.8,417.71 0.04,1.05 c 0.3,7.42 4.49,8.66 6.19,8.66 5.13,0 5.63,-6.72 5.63,-8.66 h -11.82 l -0.04,-1.05 h 13.9 c 1.1,0 1.24,0 1.24,1.05 0,4.92 -2.69,9.75 -8.91,9.75 -5.78,0 -10.37,-5.12 -10.37,-11.36 0,-6.67 5.23,-11.5 10.96,-11.5 6.08,0 8.32,5.53 8.32,6.47 0,0.5 -0.39,0.61 -0.64,0.61 -0.46,0 -0.55,-0.3 -0.66,-0.7 -1.73,-5.13 -6.22,-5.13 -6.72,-5.13 -2.5,0 -4.48,1.49 -5.62,3.33 -1.5,2.39 -1.5,5.69 -1.5,7.48 z"
           inkscape:connector-curvature="0"
           style="fill:#000000;stroke-width:0" /><path
           id="path2156"
           d="m 682.97,435.54 v 0.28 l -0.02,0.27 -0.01,0.27 -0.03,0.26 -0.03,0.26 -0.04,0.25 -0.04,0.25 -0.05,0.24 -0.06,0.23 -0.07,0.23 -0.07,0.22 -0.07,0.21 -0.09,0.2 -0.09,0.2 -0.1,0.19 -0.1,0.18 -0.11,0.17 -0.12,0.16 -0.12,0.15 -0.13,0.15 -0.13,0.13 -0.14,0.12 -0.15,0.12 -0.15,0.1 -0.16,0.09 -0.16,0.08 -0.17,0.07 -0.18,0.05 -0.18,0.05 -0.18,0.03 -0.2,0.02 -0.2,0.01 c -1.73,0 -2.64,-1.35 -2.64,-2.64 0,-1.3 0.85,-2.64 2.64,-2.64 1,0 1.71,0.5 2,0.79 0.05,0.1 0.1,0.14 0.15,0.14 0.11,0 0.11,-0.68 0.11,-0.89 0,-1.59 -0.36,-5.18 -3.49,-8.26 -0.61,-0.6 -0.61,-0.71 -0.61,-0.85 0,-0.36 0.25,-0.56 0.5,-0.56 0.55,0 4.69,3.8 4.69,9.67 z"
           inkscape:connector-curvature="0"
           style="fill:#000000;stroke-width:0" /><path
           id="path2158"
           d="m 692.62,435.54 v 0.28 l -0.01,0.27 -0.02,0.27 -0.02,0.26 -0.03,0.26 -0.04,0.25 -0.04,0.25 -0.05,0.24 -0.06,0.23 -0.07,0.23 -0.07,0.22 -0.07,0.21 -0.09,0.2 -0.09,0.2 -0.09,0.19 -0.11,0.18 -0.11,0.17 -0.11,0.16 -0.12,0.15 -0.13,0.15 -0.13,0.13 -0.14,0.12 -0.15,0.12 -0.15,0.1 -0.16,0.09 -0.16,0.08 -0.17,0.07 -0.18,0.05 -0.18,0.05 -0.18,0.03 -0.2,0.02 -0.19,0.01 c -1.75,0 -2.64,-1.35 -2.64,-2.64 0,-1.3 0.84,-2.64 2.64,-2.64 1,0 1.68,0.5 1.98,0.79 0.06,0.1 0.11,0.14 0.16,0.14 0.09,0 0.09,-0.68 0.09,-0.89 0,-1.59 -0.34,-5.18 -3.48,-8.26 -0.6,-0.6 -0.6,-0.71 -0.6,-0.85 0,-0.36 0.25,-0.56 0.5,-0.56 0.55,0 4.67,3.8 4.67,9.67 z"
           inkscape:connector-curvature="0"
           style="fill:#000000;stroke-width:0" /><path
           id="path2160"
           d="m 710.41,406.25 v 0.3 l -0.01,0.3 -0.02,0.29 -0.03,0.28 -0.03,0.27 -0.04,0.26 -0.04,0.26 -0.05,0.24 -0.06,0.24 -0.07,0.23 -0.07,0.22 -0.07,0.21 -0.09,0.2 -0.09,0.19 -0.09,0.19 -0.1,0.17 -0.11,0.16 -0.11,0.16 -0.12,0.14 -0.12,0.13 -0.13,0.13 -0.13,0.11 -0.14,0.1 -0.15,0.1 -0.14,0.08 -0.16,0.07 -0.16,0.06 -0.16,0.05 -0.17,0.04 -0.17,0.03 -0.18,0.01 -0.18,0.01 c -1.64,0 -2.64,-1.25 -2.64,-2.64 0,-1.34 1,-2.64 2.64,-2.64 0.6,0 1.25,0.2 1.75,0.64 0.14,0.11 0.21,0.16 0.25,0.16 0.05,0 0.1,-0.05 0.1,-0.75 0,-3.69 -1.74,-6.68 -3.39,-8.32 -0.55,-0.54 -0.55,-0.65 -0.55,-0.79 0,-0.36 0.25,-0.55 0.5,-0.55 0.55,0 4.53,3.83 4.53,9.66 z"
           inkscape:connector-curvature="0"
           style="fill:#000000;stroke-width:0" /><path
           id="path2162"
           d="m 730,435.54 v 0.28 l -0.01,0.27 -0.02,0.27 -0.03,0.26 -0.03,0.26 -0.04,0.25 -0.04,0.25 -0.05,0.24 -0.06,0.23 -0.06,0.23 -0.08,0.22 -0.07,0.21 -0.09,0.2 -0.09,0.2 -0.1,0.19 -0.1,0.18 -0.11,0.17 -0.11,0.16 -0.13,0.15 -0.13,0.15 -0.13,0.13 -0.14,0.12 -0.15,0.12 -0.15,0.1 -0.16,0.09 -0.16,0.08 -0.17,0.07 -0.18,0.05 -0.18,0.05 -0.18,0.03 -0.2,0.02 -0.19,0.01 c -1.74,0 -2.64,-1.35 -2.64,-2.64 0,-1.3 0.84,-2.64 2.64,-2.64 1,0 1.7,0.5 2,0.79 0.04,0.1 0.09,0.14 0.14,0.14 0.11,0 0.11,-0.68 0.11,-0.89 0,-1.59 -0.36,-5.18 -3.49,-8.26 -0.61,-0.6 -0.61,-0.71 -0.61,-0.85 0,-0.36 0.25,-0.56 0.5,-0.56 0.55,0 4.69,3.8 4.69,9.67 z"
           inkscape:connector-curvature="0"
           style="fill:#000000;stroke-width:0" /><path
           id="path2164"
           d="m 739.66,435.54 -0.01,0.28 -0.01,0.27 -0.02,0.27 -0.02,0.26 -0.03,0.26 -0.04,0.25 -0.04,0.25 -0.05,0.24 -0.06,0.23 -0.06,0.23 -0.08,0.22 -0.07,0.21 -0.09,0.2 -0.09,0.2 -0.09,0.19 -0.11,0.18 -0.1,0.17 -0.12,0.16 -0.12,0.15 -0.13,0.15 -0.13,0.13 -0.14,0.12 -0.15,0.12 -0.15,0.1 -0.16,0.09 -0.16,0.08 -0.17,0.07 -0.17,0.05 -0.19,0.05 -0.18,0.03 -0.19,0.02 -0.2,0.01 c -1.75,0 -2.64,-1.35 -2.64,-2.64 0,-1.3 0.84,-2.64 2.64,-2.64 1,0 1.69,0.5 1.98,0.79 0.07,0.1 0.11,0.14 0.16,0.14 0.09,0 0.09,-0.68 0.09,-0.89 0,-1.59 -0.34,-5.18 -3.48,-8.26 -0.6,-0.6 -0.6,-0.71 -0.6,-0.85 0,-0.36 0.25,-0.56 0.5,-0.56 0.55,0 4.68,3.8 4.68,9.67 z"
           inkscape:connector-curvature="0"
           style="fill:#000000;stroke-width:0" /><path
           id="path2166"
           d="m 753.16,417.06 v 0.38 l 0.01,0.36 0.02,0.36 0.02,0.35 0.02,0.34 0.03,0.34 0.04,0.32 0.04,0.32 0.05,0.31 0.05,0.3 0.05,0.29 0.07,0.29 0.13,0.55 0.15,0.51 0.17,0.49 0.18,0.46 0.2,0.43 0.2,0.4 0.23,0.38 0.23,0.35 0.24,0.32 0.25,0.3 0.25,0.28 0.27,0.26 0.27,0.23 0.27,0.21 0.28,0.19 0.28,0.16 0.29,0.15 0.28,0.13 0.28,0.12 0.28,0.09 0.28,0.08 0.28,0.06 0.27,0.05 0.26,0.03 0.26,0.02 0.26,0.01 c 0.43,0 3.57,-0.05 5.32,-1.85 -2.04,-0.15 -2.34,-1.64 -2.34,-2.29 0,-1.3 0.89,-2.3 2.3,-2.3 1.28,0 2.28,0.86 2.28,2.34 0,3.39 -3.78,5.33 -7.63,5.33 -6.22,0 -10.81,-5.37 -10.81,-11.55 0,-6.37 4.94,-11.31 10.72,-11.31 6.67,0 8.26,5.99 8.26,6.47 0,0.5 -0.5,0.5 -0.64,0.5 -0.45,0 -0.54,-0.19 -0.65,-0.5 -1.44,-4.62 -4.68,-5.22 -6.52,-5.22 -2.64,0 -7.03,2.14 -7.03,10.16 z"
           inkscape:connector-curvature="0"
           style="fill:#000000;stroke-width:0" /><path
           id="path2168"
           d="m 786,409.98 0.03,-0.19 0.03,-0.18 0.03,-0.19 0.04,-0.18 0.05,-0.19 0.06,-0.18 0.06,-0.18 0.07,-0.18 0.07,-0.18 0.08,-0.17 0.09,-0.18 0.1,-0.16 0.1,-0.16 0.1,-0.16 0.12,-0.16 0.12,-0.14 0.12,-0.14 0.13,-0.14 0.14,-0.13 0.15,-0.12 0.15,-0.12 0.15,-0.1 0.17,-0.1 0.17,-0.09 0.17,-0.08 0.18,-0.07 0.19,-0.06 0.19,-0.05 0.2,-0.04 0.21,-0.03 0.21,-0.02 0.22,-0.01 c 1.03,0 4.07,0.71 4.07,4.74 v 2.78 h -1.25 v -2.78 c 0,-2.89 -1.23,-3.19 -1.79,-3.19 -1.65,0 -1.85,2.23 -1.85,2.48 v 9.97 c 0,2.1 0,4.03 -1.78,5.88 -1.95,1.93 -4.44,2.73 -6.83,2.73 -4.09,0 -7.53,-2.33 -7.53,-5.62 0,-1.49 1,-2.35 2.3,-2.35 1.39,0 2.29,1 2.29,2.3 0,0.59 -0.25,2.23 -2.54,2.3 1.34,1.73 3.78,2.28 5.37,2.28 2.46,0 5.29,-1.94 5.29,-6.38 v -1.84 -1.05 -4.98 c 0,-4.74 -3.58,-6.42 -5.83,-6.42 -2.44,0 -4.49,1.75 -4.49,4.23 0,2.73 2.1,6.88 10.32,7.17 v 0 1.05 c -2.54,-0.14 -6.02,-0.3 -9.16,-1.8 -3.74,-1.69 -4.99,-4.28 -4.99,-6.47 0,-4.03 4.83,-5.28 7.97,-5.28 3.3,0 5.58,1.99 6.53,4.33 z"
           inkscape:connector-curvature="0"
           style="fill:#000000;stroke-width:0" /><path
           id="path2170"
           d="m 802.68,422.75 v 5.46 l -6.92,-0.54 v -1.55 c 3.48,0 3.89,-0.34 3.89,-2.78 v -13.36 c 0,-2.23 -0.55,-2.23 -3.89,-2.23 v -1.55 c 1.95,0.05 4.28,0.16 5.69,0.16 1.98,0 4.32,0 6.32,-0.16 v 1.55 h -1.04 c -3.69,0 -3.8,0.54 -3.8,2.34 v 7.67 c 0,4.92 2.09,9.36 5.89,9.36 0.34,0 0.44,0 0.55,-0.05 -0.16,-0.04 -1.16,-0.64 -1.16,-1.93 0,-1.41 1.05,-2.14 2.16,-2.14 0.89,0 2.14,0.59 2.14,2.18 0,1.6 -1.55,3.03 -3.69,3.03 -3.64,0 -5.44,-3.32 -6.14,-5.46 z"
           inkscape:connector-curvature="0"
           style="fill:#000000;stroke-width:0" /><path
           id="path2172"
           d="m 821.55,435.54 v 0.28 l -0.01,0.27 -0.02,0.27 -0.02,0.26 -0.04,0.26 -0.03,0.25 -0.05,0.25 -0.05,0.24 -0.06,0.23 -0.06,0.23 -0.07,0.22 -0.08,0.21 -0.09,0.2 -0.09,0.2 -0.09,0.19 -0.11,0.18 -0.11,0.17 -0.11,0.16 -0.13,0.15 -0.12,0.15 -0.14,0.13 -0.14,0.12 -0.15,0.12 -0.15,0.1 -0.16,0.09 -0.16,0.08 -0.17,0.07 -0.17,0.05 -0.19,0.05 -0.18,0.03 -0.2,0.02 -0.19,0.01 c -1.74,0 -2.64,-1.35 -2.64,-2.64 0,-1.3 0.84,-2.64 2.64,-2.64 1,0 1.7,0.5 2,0.79 0.04,0.1 0.09,0.14 0.14,0.14 0.11,0 0.11,-0.68 0.11,-0.89 0,-1.59 -0.36,-5.18 -3.49,-8.26 -0.61,-0.6 -0.61,-0.71 -0.61,-0.85 0,-0.36 0.25,-0.56 0.5,-0.56 0.55,0 4.69,3.8 4.69,9.67 z"
           inkscape:connector-curvature="0"
           style="fill:#000000;stroke-width:0" /><path
           id="path2174"
           d="m 831.21,435.54 -0.01,0.28 -0.01,0.27 -0.01,0.27 -0.03,0.26 -0.03,0.26 -0.04,0.25 -0.04,0.25 -0.05,0.24 -0.06,0.23 -0.06,0.23 -0.07,0.22 -0.08,0.21 -0.09,0.2 -0.09,0.2 -0.09,0.19 -0.1,0.18 -0.11,0.17 -0.12,0.16 -0.12,0.15 -0.13,0.15 -0.13,0.13 -0.14,0.12 -0.15,0.12 -0.15,0.1 -0.16,0.09 -0.16,0.08 -0.17,0.07 -0.17,0.05 -0.18,0.05 -0.19,0.03 -0.19,0.02 -0.2,0.01 c -1.75,0 -2.64,-1.35 -2.64,-2.64 0,-1.3 0.84,-2.64 2.64,-2.64 1,0 1.69,0.5 1.98,0.79 0.07,0.1 0.11,0.14 0.16,0.14 0.09,0 0.09,-0.68 0.09,-0.89 0,-1.59 -0.34,-5.18 -3.48,-8.26 -0.6,-0.6 -0.6,-0.71 -0.6,-0.85 0,-0.36 0.25,-0.56 0.5,-0.56 0.55,0 4.68,3.8 4.68,9.67 z"
           inkscape:connector-curvature="0"
           style="fill:#000000;stroke-width:0" /><path
           id="path2176"
           d="m 853.16,418.65 -0.01,0.37 v 0.39 l -0.01,0.39 -0.01,0.41 -0.04,0.84 -0.06,0.88 -0.08,0.92 -0.11,0.95 -0.14,0.97 -0.16,1.01 -0.2,1.02 -0.23,1.03 -0.26,1.05 -0.31,1.06 -0.35,1.07 -0.39,1.07 -0.21,0.53 -0.23,0.53 -0.24,0.53 -0.24,0.53 c -2.99,6.12 -7.27,9.36 -7.77,9.36 -0.3,0 -0.5,-0.19 -0.5,-0.49 0,-0.15 0,-0.25 0.94,-1.15 4.89,-4.92 7.73,-12.85 7.73,-23.27 0,-8.51 -1.84,-17.28 -8.03,-23.56 -0.64,-0.59 -0.64,-0.7 -0.64,-0.84 0,-0.3 0.2,-0.5 0.5,-0.5 0.5,0 4.97,3.39 7.92,9.71 2.53,5.47 3.13,11 3.13,15.19 z"
           inkscape:connector-curvature="0"
           style="fill:#000000;stroke-width:0" /></g>    </g>
  </g>
</svg>
